<svg width="803" height="112" viewBox="0 0 803 112" fill="none" xmlns="http://www.w3.org/2000/svg">
<path d="M71.675 109C71.675 108.04 71.6217 107.027 71.515 105.96C71.4083 104.893 71.195 103.933 70.875 103.08C70.555 102.12 70.075 101.32 69.435 100.68C68.9017 100.04 68.155 99.72 67.195 99.72C66.6617 99.72 65.915 99.9867 64.955 100.52C64.1017 101.053 63.0883 101.747 61.915 102.6C59.7817 104.307 57.0083 106.12 53.595 108.04C50.2883 109.853 46.3417 110.76 41.755 110.76C35.4617 110.76 29.755 109.373 24.635 106.6C19.6217 103.72 15.355 99.88 11.835 95.08C8.31499 90.28 5.59499 84.68 3.67499 78.28C1.75499 71.7733 0.794986 64.8933 0.794986 57.64C0.794986 50.3867 1.70165 43.3467 3.51499 36.52C5.43499 29.5867 8.15499 23.5067 11.675 18.28C15.195 12.9467 19.515 8.67999 24.635 5.48C29.755 2.27999 35.6217 0.679993 42.235 0.679993C45.115 0.679993 47.675 1.15999 49.915 2.11999C52.155 2.97333 54.235 3.93333 56.155 4.99999C58.075 6.06666 59.8883 7.07999 61.595 8.03999C63.3017 8.89333 65.115 9.32 67.035 9.32C68.315 9.32 69.275 9 69.915 8.36C70.555 7.61333 70.9817 6.49333 71.195 4.99999H74.075V37.32H70.875C70.6617 33.48 69.8083 29.64 68.315 25.8C66.9283 21.8533 65.115 18.3333 62.875 15.24C60.635 12.04 57.9683 9.47999 54.875 7.56C51.8883 5.53333 48.6883 4.51999 45.275 4.51999C41.8617 4.51999 38.9283 5.42666 36.475 7.23999C34.0217 9.05333 31.9417 11.4533 30.235 14.44C28.5283 17.4267 27.1417 20.84 26.075 24.68C25.115 28.4133 24.315 32.2533 23.675 36.2C23.1417 40.04 22.7683 43.88 22.555 47.72C22.4483 51.4533 22.395 54.76 22.395 57.64C22.395 63.08 22.715 68.6267 23.355 74.28C23.995 79.8267 25.275 84.9467 27.195 89.64C29.115 94.2267 31.835 98.0133 35.355 101C38.875 103.88 43.515 105.32 49.275 105.32C52.3683 105.32 55.195 104.2 57.755 101.96C60.315 99.6133 62.555 96.7333 64.475 93.32C66.395 89.8 67.9417 86.0667 69.115 82.12C70.395 78.0667 71.2483 74.3333 71.675 70.92H74.075V109H71.675ZM81.72 106.28C84.0667 106.28 85.9867 106.12 87.48 105.8C88.9733 105.48 90.2 104.893 91.16 104.04C92.12 103.187 92.92 101.96 93.56 100.36C94.2 98.6533 94.9467 96.52 95.8 93.96C100.387 78.3867 105.027 62.8667 109.72 47.4C114.413 31.8267 119.107 16.2533 123.8 0.679993H129.24L163.32 106.28H170.36V109H132.12V106.28H142.84L132.6 74.12H104.76L103.64 77.32C103.107 78.92 102.467 80.9467 101.72 83.4C100.973 85.8533 100.227 88.3067 99.48 90.76C98.84 93.2133 98.2533 95.4533 97.72 97.48C97.1867 99.5067 96.92 100.893 96.92 101.64C96.92 102.92 97.4 103.88 98.36 104.52C99.4267 105.16 100.653 105.64 102.04 105.96C103.427 106.173 104.867 106.28 106.36 106.28H107.16C107.267 106.28 107.373 106.28 107.48 106.28H107.64C107.64 106.28 107.693 106.28 107.8 106.28C107.907 106.28 107.96 106.28 107.96 106.28H108.12H110.04V109H81.72V106.28ZM105.56 71.4H131.8L118.36 29.48L105.56 71.4ZM201.581 4.99999H199.341C194.221 4.99999 190.008 5.42666 186.701 6.28C183.395 7.02666 180.728 8.51999 178.701 10.76C176.781 12.8933 175.395 15.88 174.541 19.72C173.795 23.4533 173.421 28.36 173.421 34.44H170.541C170.755 28.8933 170.861 23.5067 170.861 18.28C170.968 13.0533 171.128 7.71999 171.341 2.27999H250.541C250.648 7.71999 250.701 13.0533 250.701 18.28C250.808 23.5067 250.915 28.8933 251.021 34.44H248.461C248.461 27.9333 248.035 22.76 247.181 18.92C246.328 14.9733 244.835 11.9867 242.701 9.96C240.675 7.82666 237.848 6.49332 234.221 5.95999C230.701 5.31999 226.115 4.99999 220.461 4.99999V106.28H231.341V109H190.221V106.28H201.581V4.99999ZM252.04 106.28C254.387 106.28 256.307 106.12 257.8 105.8C259.293 105.48 260.52 104.893 261.48 104.04C262.44 103.187 263.24 101.96 263.88 100.36C264.52 98.6533 265.267 96.52 266.12 93.96C270.707 78.3867 275.347 62.8667 280.04 47.4C284.733 31.8267 289.427 16.2533 294.12 0.679993H299.56L333.64 106.28H340.68V109H302.44V106.28H313.16L302.92 74.12H275.08L273.96 77.32C273.427 78.92 272.787 80.9467 272.04 83.4C271.293 85.8533 270.547 88.3067 269.8 90.76C269.16 93.2133 268.573 95.4533 268.04 97.48C267.507 99.5067 267.24 100.893 267.24 101.64C267.24 102.92 267.72 103.88 268.68 104.52C269.747 105.16 270.973 105.64 272.36 105.96C273.747 106.173 275.133 106.28 276.52 106.28C278.013 106.28 279.187 106.28 280.04 106.28H280.36V109H252.04V106.28ZM275.88 71.4H302.12L288.68 29.48L275.88 71.4ZM421.981 73.64V109H343.101V106.28H353.181V4.99999H343.101V2.27999H382.461V4.99999H371.261V106.28H389.981C394.888 106.28 399.155 106.067 402.781 105.64C406.515 105.107 409.608 103.773 412.061 101.64C414.515 99.5067 416.328 96.2533 417.501 91.88C418.781 87.5067 419.421 81.4267 419.421 73.64H421.981ZM473.507 0.199999C479.587 0.199999 485.134 1.85333 490.147 5.15999C495.267 8.36 499.641 12.6267 503.267 17.96C507.001 23.1867 509.881 29.16 511.907 35.88C513.934 42.4933 514.947 49.16 514.947 55.88C514.947 62.7067 513.934 69.4267 511.907 76.04C509.881 82.5467 507.001 88.4133 503.267 93.64C499.641 98.76 495.267 102.92 490.147 106.12C485.134 109.32 479.587 110.92 473.507 110.92C467.321 110.92 461.667 109.32 456.547 106.12C451.427 102.813 447.054 98.4933 443.427 93.16C439.801 87.8267 436.974 81.8 434.947 75.08C432.921 68.36 431.907 61.5333 431.907 54.6C431.907 47.9867 432.974 41.4267 435.107 34.92C437.347 28.4133 440.334 22.6 444.067 17.48C447.907 12.36 452.334 8.2 457.347 4.99999C462.361 1.8 467.747 0.199999 473.507 0.199999ZM473.827 2.75999C470.414 2.75999 467.481 3.66666 465.027 5.48C462.574 7.18666 460.494 9.53333 458.787 12.52C457.081 15.4 455.694 18.7067 454.627 22.44C453.667 26.0667 452.867 29.8533 452.227 33.8C451.694 37.64 451.321 41.48 451.107 45.32C450.894 49.0533 450.787 52.4133 450.787 55.4C450.787 58.4933 450.841 61.96 450.947 65.8C451.161 69.5333 451.534 73.3733 452.067 77.32C452.601 81.16 453.347 84.9467 454.307 88.68C455.267 92.4133 456.547 95.7733 458.147 98.76C459.854 101.64 461.934 103.987 464.387 105.8C466.841 107.507 469.827 108.36 473.347 108.36C476.867 108.36 479.854 107.453 482.307 105.64C484.761 103.827 486.787 101.48 488.387 98.6C489.987 95.6133 491.214 92.2533 492.067 88.52C492.921 84.68 493.561 80.84 493.987 77C494.414 73.0533 494.681 69.2133 494.787 65.48C494.894 61.64 494.947 58.2267 494.947 55.24C494.947 52.5733 494.841 49.4267 494.627 45.8C494.521 42.1733 494.201 38.44 493.667 34.6C493.134 30.76 492.387 26.92 491.427 23.08C490.574 19.24 489.347 15.8267 487.747 12.84C486.147 9.85333 484.227 7.45333 481.987 5.64C479.747 3.71999 477.027 2.75999 473.827 2.75999ZM600.984 36.52H597.784C597.25 32.5733 596.344 28.7333 595.064 25C593.89 21.2667 592.344 17.96 590.424 15.08C588.504 12.2 586.157 9.90666 583.384 8.19999C580.61 6.49333 577.41 5.64 573.784 5.64C567.917 5.64 563.277 7.4 559.864 10.92C556.45 14.3333 553.837 18.6 552.024 23.72C550.317 28.84 549.197 34.3333 548.664 40.2C548.13 45.96 547.81 51.1867 547.704 55.88C547.704 56.84 547.704 57.8533 547.704 58.92C547.704 61.0533 547.757 63.6667 547.864 66.76C548.077 69.7467 548.504 73.1067 549.144 76.84C549.784 80.4667 550.637 84.04 551.704 87.56C552.877 91.08 554.37 94.2267 556.184 97C557.997 99.6667 560.184 101.853 562.744 103.56C565.304 105.16 568.29 105.96 571.704 105.96C576.504 105.96 580.61 104.52 584.024 101.64C587.437 98.76 589.144 94.12 589.144 87.72V61.16H579.704V58.44H617.144V61.16H607.864L607.544 108.2C606.264 105.427 605.09 103.667 604.024 102.92C603.064 102.173 602.05 101.8 600.984 101.8C600.664 101.8 600.077 101.907 599.224 102.12C598.477 102.227 597.304 102.707 595.704 103.56C594.21 104.413 592.504 105.16 590.584 105.8C587.49 107.08 584.29 108.147 580.984 109C577.784 109.96 574.424 110.44 570.904 110.44C564.29 110.44 558.317 109.16 552.984 106.6C547.65 104.04 543.064 100.413 539.224 95.72C535.384 91.0267 532.397 85.48 530.264 79.08C528.237 72.5733 527.224 65.3733 527.224 57.48C527.224 50.12 528.237 43.0267 530.264 36.2C532.397 29.3733 535.384 23.4 539.224 18.28C543.064 13.0533 547.597 8.89333 552.824 5.79999C558.157 2.70666 564.024 1.16 570.424 1.16C572.984 1.16 575.33 1.58666 577.464 2.44C579.597 3.29333 581.624 4.25333 583.544 5.32C585.464 6.27999 587.277 7.18666 588.984 8.03999C590.69 8.89333 592.45 9.32 594.264 9.32C595.757 9.32 596.717 8.84 597.144 7.88C597.57 6.81333 597.837 5.53333 597.944 4.04H600.984V36.52ZM716.259 4.99999H713.699C711.565 4.99999 709.805 5.05333 708.419 5.15999C707.139 5.26666 706.072 5.74666 705.219 6.59999C704.472 7.34666 703.939 8.62666 703.619 10.44C703.405 12.2533 703.299 14.8133 703.299 18.12V72.68C703.299 86.5467 700.472 96.4667 694.819 102.44C689.272 108.307 680.899 111.24 669.699 111.24C666.179 111.24 662.285 110.973 658.019 110.44C653.859 109.907 649.859 108.84 646.019 107.24C642.285 105.533 638.979 103.187 636.099 100.2C633.325 97.2133 631.619 93.2667 630.979 88.36C630.765 87.1867 630.659 85.6933 630.659 83.88V83.4C630.659 83.4 630.659 83.3467 630.659 83.24V82.76C630.659 82.5467 630.659 82.3867 630.659 82.28V82.12V81.96C630.659 81.7467 630.659 81.5867 630.659 81.48V4.99999H620.579V2.27999H661.059V4.99999H650.819V73.96C650.819 78.8667 651.085 83.4 651.619 87.56C652.259 91.6133 653.379 95.1333 654.979 98.12C656.685 101.107 658.979 103.453 661.859 105.16C664.739 106.867 668.419 107.72 672.899 107.72C677.805 107.72 681.965 106.867 685.379 105.16C688.899 103.347 691.672 100.84 693.699 97.64C695.832 94.3333 697.379 90.3867 698.339 85.8C699.299 81.1067 699.779 75.9333 699.779 70.28V18.12C699.779 14.7067 699.565 12.0933 699.139 10.28C698.819 8.46666 698.232 7.13333 697.379 6.28C696.525 5.42666 695.565 4.94666 694.499 4.84C693.539 4.73333 692.632 4.68 691.779 4.68C690.925 4.68 689.965 4.73333 688.899 4.84C688.365 4.84 687.779 4.89333 687.139 4.99999C686.605 4.99999 685.965 4.99999 685.219 4.99999V2.27999H716.259V4.99999ZM749.226 105.8H764.746C769.653 105.8 774.186 105.693 778.346 105.48C782.613 105.16 786.293 104.147 789.386 102.44C792.48 100.627 794.933 97.8 796.746 93.96C798.56 90.12 799.466 84.6267 799.466 77.48H802.186V109H721.866V106.28H729.866V4.99999H721.866V2.27999H802.026L802.186 28.52H799.466C798.613 22.6533 797.066 18.1733 794.826 15.08C792.693 11.88 790.026 9.58666 786.826 8.19999C783.733 6.70666 780.16 5.90666 776.106 5.79999C772.16 5.58666 767.893 5.48 763.306 5.48H749.226V52.68H753.386C756.693 52.68 759.573 52.5733 762.026 52.36C764.586 52.1467 766.72 51.4533 768.426 50.28C770.133 49.1067 771.413 47.2933 772.266 44.84C773.12 42.28 773.6 38.76 773.706 34.28H776.266V74.6H773.706C773.6 70.5467 773.173 67.3467 772.426 65C771.786 62.5467 770.826 60.7333 769.546 59.56C768.266 58.28 766.72 57.48 764.906 57.16C763.093 56.7333 761.013 56.52 758.666 56.52H749.226V105.8Z" fill="#3D3D3D"/>
</svg>
